<?xml version="1.0" encoding="UTF-8" standalone="no"?>
<!-- Generator: Adobe Illustrator 26.0.2, SVG Export Plug-In . SVG Version: 6.00 Build 0)  -->

<svg
   version="1.1"
   id="Ebene_1"
   x="0px"
   y="0px"
   viewBox="0 0 175.41675 131.73064"
   xml:space="preserve"
   sodipodi:docname="Duckdb+Exon.svg"
   inkscape:version="1.2.2 (b0a84865, 2022-12-01)"
   width="175.41676"
   height="131.73064"
   inkscape:export-filename="../../../../../../Google Drive/My Drive/WHERE TRUE/Design/Duckdb+Exon.svg"
   inkscape:export-xdpi="96"
   inkscape:export-ydpi="96"
   xmlns:inkscape="http://www.inkscape.org/namespaces/inkscape"
   xmlns:sodipodi="http://sodipodi.sourceforge.net/DTD/sodipodi-0.dtd"
   xmlns="http://www.w3.org/2000/svg"
   xmlns:svg="http://www.w3.org/2000/svg"><defs
   id="defs19233" /><sodipodi:namedview
   id="namedview19231"
   pagecolor="#ffffff"
   bordercolor="#000000"
   borderopacity="0.25"
   inkscape:showpageshadow="2"
   inkscape:pageopacity="0.0"
   inkscape:pagecheckerboard="0"
   inkscape:deskcolor="#d1d1d1"
   showgrid="false"
   inkscape:zoom="2.2701108"
   inkscape:cx="92.065991"
   inkscape:cy="61.010238"
   inkscape:window-width="1470"
   inkscape:window-height="891"
   inkscape:window-x="0"
   inkscape:window-y="25"
   inkscape:window-maximized="0"
   inkscape:current-layer="Ebene_1" />
<style
   type="text/css"
   id="style19204">
	.st0{fill:none;}
	.st1{fill:#FFEF00;}
</style>
<rect
   style="fill:#fbf5ef;fill-opacity:1;stroke:#292a2c;stroke-width:5.64906;stroke-dasharray:none;stroke-opacity:1"
   id="rect24479"
   width="169.7677"
   height="126.08157"
   x="2.8245299"
   y="2.8245299" /><g
   inkscape:groupmode="layer"
   id="layer1"
   inkscape:label="duckdb-back"
   transform="translate(-38.19805,98.198831)" />
<g
   id="g24187"
   transform="matrix(4.9147248,0,0,4.9147248,-205.56146,-11.003363)"
   style="stroke:#292a2c;stroke-opacity:1"><text
     xml:space="preserve"
     style="font-style:normal;font-variant:normal;font-weight:bold;font-stretch:normal;font-size:8.91505px;font-family:'Chivo Mono';-inkscape-font-specification:'Chivo Mono, Bold';font-variant-ligatures:normal;font-variant-caps:normal;font-variant-numeric:normal;font-variant-east-asian:normal;fill:#0174c5;fill-opacity:1;stroke:#292a2c;stroke-width:0;stroke-dasharray:none;stroke-opacity:1"
     x="48.919048"
     y="10.804986"
     id="text236"
     inkscape:export-filename="text236.svg"
     inkscape:export-xdpi="2500"
     inkscape:export-ydpi="2500"><tspan
       sodipodi:role="line"
       id="tspan234"
       style="font-style:normal;font-variant:normal;font-weight:bold;font-stretch:normal;font-size:8.91505px;font-family:'Chivo Mono';-inkscape-font-specification:'Chivo Mono, Bold';font-variant-ligatures:normal;font-variant-caps:normal;font-variant-numeric:normal;font-variant-east-asian:normal;fill:#0174c5;fill-opacity:1;stroke:#292a2c;stroke-width:0;stroke-dasharray:none;stroke-opacity:1"
       x="48.919048"
       y="10.804986">Exon</tspan></text><rect
     style="fill:#e74115;fill-opacity:1;stroke:#292a2c;stroke-width:0;stroke-dasharray:none;stroke-opacity:1"
     id="rect2630-3"
     width="3.6528196"
     height="1.6847416"
     x="55.50824"
     y="11.512705"
     ry="0"
     rx="0" /><rect
     style="fill:#0174c5;fill-opacity:1;stroke:#292a2c;stroke-width:0;stroke-dasharray:none;stroke-opacity:1"
     id="rect2630-3-8"
     width="5.2786207"
     height="1.6847416"
     x="59.83696"
     y="11.512705"
     ry="0"
     rx="0" /><rect
     style="fill:#0174c5;fill-opacity:1;stroke:#292a2c;stroke-width:0;stroke-dasharray:none;stroke-opacity:1"
     id="rect2630-3-8-6"
     width="5.2786207"
     height="1.6847416"
     x="49.639442"
     y="11.511943"
     ry="0"
     rx="0" /><rect
     style="fill:#e74115;fill-opacity:1;stroke:#292a2c;stroke-width:0;stroke-dasharray:none;stroke-opacity:1"
     id="rect2630-3-8-1"
     width="0.91156161"
     height="1.6862794"
     x="65.713463"
     y="11.51194"
     ry="0"
     rx="0" /><rect
     style="fill:#0174c5;fill-opacity:1;stroke:#292a2c;stroke-width:0;stroke-dasharray:none;stroke-opacity:1"
     id="rect2630-3-8-4"
     width="2.6207914"
     height="1.6847416"
     x="67.170532"
     y="11.512705"
     ry="0"
     rx="0" /></g><text
   xml:space="preserve"
   style="font-weight:bold;font-size:58.2531px;font-family:'Chivo Mono';-inkscape-font-specification:'Chivo Mono, Bold';fill:#0e232e;stroke:#292a2c;stroke-width:0;stroke-opacity:1"
   x="80.113144"
   y="83.235077"
   id="text24111"><tspan
     sodipodi:role="line"
     id="tspan24109"
     style="font-style:normal;font-variant:normal;font-weight:bold;font-stretch:normal;font-size:24.3437px;font-family:'Chivo Mono';-inkscape-font-specification:'Chivo Mono, Bold';font-variant-ligatures:normal;font-variant-caps:normal;font-variant-numeric:normal;font-variant-east-asian:normal;stroke:#292a2c;stroke-width:0;stroke-opacity:1"
     x="80.113144"
     y="83.235077">&amp;</tspan></text><g
   id="g24046"
   transform="matrix(3.3552206,0,0,3.3552206,-118.14589,-8.1257424)"
   style="stroke:#292a2c;stroke-opacity:1"><path
     d="m 49.682629,33.260297 h -1.69224 v 2.57116 h 1.69224 c 0.70838,0 1.28558,-0.577199 1.28558,-1.28558 0,-0.708381 -0.5772,-1.28558 -1.28558,-1.28558"
     id="path23819"
     style="stroke:#292a2c;stroke-width:0.0437272;stroke-opacity:1" /><path
     d="m 39.647229,34.545877 c 0,1.985216 1.60917,3.590005 3.59001,3.590005 1.98084,0 3.59001,-1.609162 3.59001,-3.590005 0,-1.980843 -1.60479,-3.590005 -3.59001,-3.590005 -1.98522,0 -3.59001,1.604789 -3.59001,3.590005"
     id="path23821"
     style="stroke:#292a2c;stroke-width:0.0437272;stroke-opacity:1" /><path
     d="m 63.850249,35.722139 c 0,0.446018 -0.36293,0.813326 -0.81332,0.813326 h -0.28423 c -0.44602,0 -0.81333,-0.362936 -0.81333,-0.813326 l 0.004,-2.816033 h -0.93139 l -0.004,2.816033 c 0,0.961999 0.78272,1.744716 1.74472,1.744716 h 0.28422 c 0.962,0 1.74472,-0.782717 1.74472,-1.744716 l 0.004,-2.816033 h -0.93139 z"
     id="path23823"
     style="stroke:#292a2c;stroke-width:0.0437272;stroke-opacity:1" /><path
     d="m 67.042339,33.614487 h 0.2405 c 0.53347,0 0.962,0.4329 0.962,0.961999 h 0.93139 c 0,-1.045081 -0.84831,-1.897761 -1.89339,-1.897761 h -0.2405 c -1.04508,0 -1.89339,0.85268 -1.89339,1.897761 v 0.996981 c 0,1.04508 0.85268,1.893388 1.89339,1.893388 h 0.2405 c 1.04508,0 1.89339,-0.852681 1.89339,-1.893388 v -0.06996 h -0.93139 v 0.06996 c 0,0.533472 -0.4329,0.961998 -0.962,0.961998 h -0.2405 c -0.53347,0 -0.962,-0.432899 -0.962,-0.961998 v -0.996981 c -0.004,-0.529099 0.42853,-0.961999 0.962,-0.961999"
     id="path23825"
     style="stroke:#292a2c;stroke-width:0.0437272;stroke-opacity:1" /><path
     d="m 81.328019,36.474247 h -1.41239 v -1.600416 h 1.41239 c 0.44165,0 0.80021,0.358563 0.80021,0.800208 0,0.441645 -0.35856,0.800208 -0.80021,0.800208 m -1.41239,-3.917959 h 1.12817 c 0.38042,0 0.69089,0.310464 0.69089,0.695263 0,0.380427 -0.31047,0.69089 -0.69089,0.69089 h -1.12817 z m 2.40063,1.696617 c 0.21863,-0.275482 0.34982,-0.6253 0.34982,-1.005726 0,-0.896409 -0.73025,-1.626653 -1.62228,-1.626653 h -2.05956 v 5.780739 h 2.34378 c 0.95325,0 1.7316,-0.778345 1.7316,-1.731598 0,-0.581572 -0.29297,-1.101926 -0.74336,-1.416762"
     id="path23827"
     style="stroke:#292a2c;stroke-width:0.0437272;stroke-opacity:1" /><path
     d="m 76.076379,36.474247 h -1.12379 v -3.917959 h 1.12379 c 0.85268,0 1.54357,0.878917 1.54357,1.95898 0,1.080062 -0.69089,1.958979 -1.54357,1.958979 m 0,-4.849348 h -2.05518 v 5.780738 h 2.05518 c 1.36429,0 2.47497,-1.298698 2.47497,-2.890369 0,-1.591671 -1.11068,-2.890369 -2.47497,-2.890369"
     id="path23829"
     style="stroke:#292a2c;stroke-width:0.0437272;stroke-opacity:1" /><path
     d="m 58.148219,36.474247 h -1.12379 v -3.917959 h 1.12379 c 0.85268,0 1.54357,0.878917 1.54357,1.95898 0,1.080062 -0.69089,1.958979 -1.54357,1.958979 m 0,-4.849348 h -2.05518 v 5.780738 h 2.05518 c 1.36429,0 2.47496,-1.298698 2.47496,-2.890369 0,-1.591671 -1.11067,-2.890369 -2.47496,-2.890369"
     id="path23831"
     style="stroke:#292a2c;stroke-width:0.0437272;stroke-opacity:1" /><polygon
     points="709.1,148.2 709.1,109.4 719.3,98.6 754.1,148.2 780.1,148.2 734.2,82.7 773.7,40.7 744.5,40.7 709.1,78.3 709.1,16.5 687.8,16.5 687.8,148.2 "
     id="polygon23833"
     transform="matrix(0.04372722,0,0,0.04372722,39.577269,30.916517)"
     style="stroke:#292a2c;stroke-opacity:1" /></g></svg>
